/* XPM */ 
static const char * config_icon_xpm[] = {
"32 32 441 2",
"  	c None",
"! 	c black",
"# 	c #93918D",
"$ 	c #716E6B",
"% 	c #94928D",
"& 	c #EDEADA",
"' 	c #EDEAD9",
"( 	c #62615E",
") 	c #94928C",
"* 	c #EDE8D7",
"+ 	c #F1ECDB",
", 	c #F1ECDA",
"- 	c #E6E2D1",
". 	c #5F5D5B",
"0 	c #777777",
"1 	c #95928D",
"2 	c #F0EAD8",
"3 	c #E8E2D0",
"4 	c #F2EBD7",
"5 	c #E9E3D1",
"6 	c #E8E2CF",
"7 	c #EDE6D4",
"8 	c #605E5B",
"9 	c #95918A",
": 	c #F0E8D5",
"; 	c #E5DDCA",
"< 	c #ECE4D0",
"= 	c #F2E9D4",
"> 	c #F3EAD6",
"? 	c #F4EBD8",
"@ 	c #EFE6D2",
"A 	c #5F5C59",
"B 	c #656A73",
"C 	c #C0C0BA",
"D 	c #DCD4C4",
"E 	c #BABAB5",
"F 	c #8D9EAD",
"G 	c #9BBDD3",
"H 	c #95BAD2",
"I 	c #728391",
"J 	c #BCBCB5",
"K 	c #E5DCCA",
"L 	c #B8BBB8",
"M 	c #45484C",
"N 	c #767677",
"O 	c #829BB2",
"P 	c #D7E5F0",
"Q 	c #C6DAE8",
"R 	c #A8C3D7",
"S 	c #C5E1F1",
"T 	c #C7E7F8",
"U 	c #B1DAEF",
"V 	c #AAD9EF",
"W 	c #AFE0F7",
"X 	c #9AD1EC",
"Y 	c #79B1D1",
"Z 	c #8BCCEB",
"[ 	c #7EC4E5",
"] 	c #3B5E75",
"^ 	c #46484C",
"_ 	c #3F5063",
"` 	c #B1D7E8",
"a 	c #E7F6FE",
"b 	c #D4EAF6",
"c 	c #75B2CC",
"d 	c #2A89AE",
"e 	c #0375A0",
"f 	c #0077A1",
"g 	c #0076A1",
"h 	c #0576A0",
"i 	c #278AB1",
"j 	c #5DADCF",
"k 	c #8FD6F5",
"l 	c #8BD8F8",
"m 	c #56B1D8",
"n 	c #232F3C",
"o 	c #6D6D6D",
"p 	c #828E9B",
"q 	c #8E97A2",
"r 	c #6C7988",
"s 	c #E6F1F7",
"t 	c #E9F6FE",
"u 	c #C1DDEC",
"v 	c #1C82A9",
"w 	c #0079A4",
"x 	c #0078A3",
"y 	c #1B84AD",
"z 	c #7ACBED",
"{ 	c #7ED5F8",
"| 	c #6EC7EC",
"} 	c #365466",
"~ 	c #637E8E",
" !	c #677987",
"!!	c #768697",
"#!	c #F8FAFC",
"$!	c #F8FCFE",
"%!	c #F2FAFE",
"&!	c #EBF7FE",
"'!	c #E4F5FD",
"(!	c #348DB1",
")!	c #2D92BA",
"*!	c #79D3F8",
"+!	c #73D2F7",
",!	c #6DD1F7",
"-!	c #6CD1F7",
".!	c #7CD0F2",
"0!	c #3F4A57",
"1!	c #63A1BC",
"2!	c #72ADC5",
"3!	c #DAE8F0",
"4!	c #EDF8FE",
"5!	c #E6F5FE",
"6!	c #DFF3FD",
"7!	c #127CA4",
"8!	c #0077A2",
"9!	c #0C6288",
":!	c #2B586C",
";!	c #43565F",
"<!	c #565D5F",
"=!	c #596163",
">!	c #455B64",
"?!	c #285A70",
"@!	c #08648C",
"A!	c #1884AE",
"B!	c #74D2F8",
"C!	c #6FD1F7",
"D!	c #78CDEE",
"E!	c #5EBCDF",
"F!	c #71B0CF",
"G!	c #35373A",
"H!	c #65717C",
"I!	c #0176A0",
"J!	c #DFECF4",
"K!	c #E8F6FE",
"L!	c #E1F3FD",
"M!	c #D9F1FD",
"N!	c #66A5C3",
"O!	c #335162",
"P!	c #897F6F",
"Q!	c #C7B69D",
"R!	c #E1CEAF",
"S!	c #E8D3B4",
"T!	c #F0DABA",
"U!	c #EAD5B6",
"V!	c #D6C4A8",
"W!	c #A29683",
"X!	c #325A6F",
"Y!	c #50ADD3",
"Z!	c #70D1F7",
"[!	c #76C8E8",
"]!	c #1B9BC0",
"^!	c #479DC0",
"_!	c #313134",
"`!	c #343434",
"a!	c #576169",
"b!	c #00749F",
"c!	c #CDE0EC",
"d!	c #E3F4FD",
"e!	c #DBF1FD",
"f!	c #D3EFFD",
"g!	c #C9EBFB",
"h!	c #7E9EB4",
"i!	c #A9A7A1",
"j!	c #E9D3B4",
"k!	c #EFD8B6",
"l!	c #F5DDBC",
"m!	c #F1D9B7",
"n!	c #EBD4B6",
"o!	c #9EA2A0",
"p!	c #62A3C4",
"q!	c #72D2F7",
"r!	c #75C1E2",
"s!	c #3CA2C5",
"t!	c #5BA5C5",
"u!	c #343334",
"v!	c #636363",
"w!	c #958B7E",
"x!	c #B5AFA1",
"y!	c #0B628C",
"z!	c #61A4C0",
"{!	c #D5E9F4",
"|!	c #DDF2FD",
"}!	c #D5F0FD",
"~!	c #CDEDFD",
" #	c #C4EAFC",
"!#	c #BBE7FB",
"##	c #A8D9F1",
"$#	c #7CABC8",
"%#	c #86A8BA",
"&#	c #8FAAB6",
"'#	c #85A3B2",
"(#	c #74A1B9",
")#	c #62A7CA",
"*#	c #75CDF1",
"+#	c #6ED1F7",
",#	c #7ACFF1",
"-#	c #7DC2DF",
".#	c #4D80A2",
"0#	c #867E70",
"1#	c #5E5750",
"2#	c #727272",
"3#	c #958A7E",
"4#	c #EED4B1",
"5#	c #8C9AA9",
"6#	c #D2E0EB",
"7#	c #E0F3FD",
"8#	c #D8F0FD",
"9#	c #CFEEFD",
":#	c #C7EBFC",
";#	c #BEE8FC",
"<#	c #B6E5FB",
"=#	c #AEE3FA",
">#	c #A5E0FA",
"?#	c #9CDDF9",
"@#	c #94DBF8",
"A#	c #8CD8F8",
"B#	c #84D6F8",
"C#	c #7DD4F8",
"D#	c #76D3F8",
"E#	c #75C3E6",
"F#	c #6D8496",
"G#	c #D8C09E",
"H#	c #5F5751",
"I#	c #707070",
"J#	c #726F6F",
"K#	c #C1AA8B",
"L#	c #F3D6AE",
"M#	c #5695B5",
"N#	c #EAF6FD",
"O#	c #E2F4FD",
"P#	c #DAF1FD",
"Q#	c #D2EDFB",
"R#	c #BDDDEF",
"S#	c #C2EAFC",
"T#	c #B8E6FB",
"U#	c #B0E3FA",
"V#	c #A8E1FA",
"W#	c #9FDEF9",
"X#	c #97DBF9",
"Y#	c #8ED9F8",
"Z#	c #86D7F8",
"[#	c #7FD5F8",
"]#	c #78D3F8",
"^#	c #7ECAEB",
"_#	c #6ED1F6",
"`#	c #7BD4F6",
"a#	c #7B97AC",
"b#	c #B8A385",
"c#	c #877762",
"d#	c #555555",
"e#	c #5A5656",
"f#	c #C2A987",
"g#	c #118FC4",
"h#	c #A2D1E6",
"i#	c #C0E0F0",
"j#	c #4C9FC0",
"k#	c #04749F",
"l#	c #4F9EBE",
"m#	c #9ECFE6",
"n#	c #A2DFF9",
"o#	c #99DCF9",
"p#	c #91DAF8",
"q#	c #89D7F8",
"r#	c #81D5F8",
"s#	c #7AD4F8",
"t#	c #74D2F7",
"u#	c #79D3F6",
"v#	c #71C0E1",
"w#	c #3C96BA",
"x#	c #05759F",
"y#	c #47A1C5",
"z#	c #77CCEF",
"{#	c #A0D4ED",
"|#	c #90A7B8",
"}#	c #625546",
"~#	c #4C4C4C",
" $	c #545151",
"!$	c #0788C1",
"#$	c #20AAE0",
"$$	c #7BB7D0",
"%$	c #0F81AA",
"&$	c #00729E",
"'$	c #2286AD",
"($	c #50A2C3",
")$	c #98D6F3",
"*$	c #83D6F8",
"+$	c #7CD4F8",
",$	c #75D3F8",
"-$	c #7ACCEE",
".$	c #459DC1",
"0$	c #1B83AB",
"1$	c #1584AC",
"2$	c #68B3D3",
"3$	c #C0E2F4",
"4$	c #8EA0B1",
"5$	c #3F3E3F",
"6$	c #1F4960",
"7$	c #00A9EA",
"8$	c #006995",
"9$	c #067BA6",
":$	c #95D6F3",
";$	c #77D3F8",
"<$	c #71D2F7",
"=$	c #79CAED",
">$	c #006894",
"?$	c #0F7BA5",
"@$	c #D7EFFC",
"A$	c #4A5565",
"B$	c #414141",
"C$	c #56575A",
"D$	c #0385BF",
"E$	c #036A94",
"F$	c #314F5C",
"G$	c #6B6354",
"H$	c #275A6F",
"I$	c #016B96",
"J$	c #1A84AC",
"K$	c #8ED8F7",
"L$	c #79D4F8",
"M$	c #79D1F4",
"N$	c #0D7EA8",
"O$	c #036993",
"P$	c #275467",
"Q$	c #685F51",
"R$	c #365A68",
"S$	c #026D98",
"T$	c #107BA5",
"U$	c #97AABD",
"V$	c #313132",
"W$	c #304351",
"X$	c #074566",
"Y$	c #4F4A41",
"Z$	c #B99C76",
"[$	c #F4CC9B",
"]$	c #DBBA90",
"^$	c #8C7B64",
"_$	c #43585E",
"`$	c #40728D",
"a$	c #356883",
"b$	c #3D5056",
"c$	c #736551",
"d$	c #B69A76",
"e$	c #EFCA9C",
"f$	c #DDBA8C",
"g$	c #474540",
"h$	c #124E70",
"i$	c #33363C",
"j$	c #444343",
"k$	c #3B3B3B",
"l$	c #474444",
"m$	c #B69871",
"n$	c #F3C996",
"o$	c #F5CB98",
"p$	c #EDC492",
"q$	c #E7C08E",
"r$	c #8A8B81",
"s$	c #298BAF",
"t$	c #288AAF",
"u$	c #278AAF",
"v$	c #288CB1",
"w$	c #2891B5",
"x$	c #505857",
"y$	c #D2AF82",
"z$	c #E9C290",
"{$	c #F6CC98",
"|$	c #F2C895",
"}$	c #836E53",
"~$	c #494848",
" %	c #404040",
"!%	c #3C3C3C",
"#%	c #524F4E",
"$%	c #C7A57B",
"%%	c #F7CD9A",
"&%	c #EBC18E",
"'%	c #F6CB96",
"(%	c #A09C8B",
")%	c #007EA9",
"*%	c #0085B0",
"+%	c #5D635C",
",%	c #F2C792",
"-%	c #F5C995",
".%	c #F8CE9B",
"0%	c #8F7658",
"1%	c #4B4A4B",
"2%	c #54504F",
"3%	c #B5946C",
"4%	c #EDC18C",
"5%	c #F2C590",
"6%	c #9B9785",
"7%	c #007BA6",
"8%	c #0082AC",
"9%	c #008BB4",
":%	c #5D655F",
";%	c #F5C994",
"<%	c #EEC28C",
"=%	c #897052",
">%	c #53504F",
"?%	c #BF9B70",
"@%	c #F5C68E",
"A%	c #AD987A",
"B%	c #325560",
"C%	c #30545E",
"D%	c #2F535D",
"E%	c #30555F",
"F%	c #305761",
"G%	c #315B65",
"H%	c #696253",
"I%	c #EEC28D",
"J%	c #80684C",
"K%	c #54514F",
"L%	c #C59F72",
"M%	c #F2C58F",
"N%	c #E0B784",
"O%	c #DCB27E",
"P%	c #DDB27F",
"Q%	c #DEB380",
"R%	c #DBB07D",
"S%	c #D7AE7B",
"T%	c #80674A",
"U%	c #545150",
"V%	c #BE986C",
"W%	c #E8B982",
"X%	c #F2C087",
"Y%	c #F7C78F",
"Z%	c #F0BF86",
"[%	c #F3C187",
"]%	c #F4C389",
"^%	c #846A4B",
"_%	c #B69065",
"`%	c #F3C085",
"a%	c #F5C287",
"b%	c #F6C48B",
"c%	c #8C6F4E",
"d%	c #4B4A4A",
"e%	c #C29969",
"f%	c #EEBB80",
"g%	c #F3C084",
"h%	c #876B4B",
"i%	c #C09768",
"j%	c #8C6E4D",
"k%	c #4D4D4D",
"                                                                ",
"                              # $                               ",
"                            % & ' (                             ",
"                          ) * + , - . 0                         ",
"                        1 2 3 4 5 6 7 8 0                       ",
"                      9 : ; < = = > ? @ A 0                     ",
"                    B C D E F G H I J K L M N                   ",
"                  O P Q R S T U V W X Y Z [ ] ^                 ",
"                _ ` a b c d e f g h i j k l m n o               ",
"          p q r s t u v w w w w w w w x y z { | } ~  !          ",
"        !!#!$!%!&!'!(!w w w x x x x w w w )!*!+!,!-!.!0!        ",
"        1!2!3!4!5!6!7!8!9!:!;!<!=!>!?!@!x A!B!C!-!D!E!F!G!      ",
"      H!w I!J!K!L!M!N!O!P!Q!R!S!T!U!V!W!X!Y!Z!-!-![!]!^!_!`!    ",
"      a!w b!c!d!e!f!g!h!i!j!k!l!m!m!n!o!p!q!,!-!-!r!s!t!u!v!    ",
"    w!x!y!z!{!|!}!~! #!###$#%#&#'#(#)#*#B!+#-!-!-!,#-#.#0#1#2#  ",
"  3#4#5#6#K!7#8#9#:#;#<#=#>#?#@#A#B#C#D#Z!-!-!-!-!-!-!E#F#G#H#I#",
"J#K#L#M#N#O#P#Q#R#S#T#U#V#W#X#Y#Z#[#]#q!,!-!q!^#_#-!-!`#a#b#c#d#",
"  e#f#g#h#|!i#j#k#l#m#U#n#o#p#q#r#s#t#+#u#v#w#x#y#z#-!{#|#}#~#`!",
"     $!$#$$$%$w &$w x '$($)$l *$+$,$-$.$0$x w &$x 1$2$3$4$5$`!`!",
"      6$7$g w x 8$w w w 9$:$Z#{ ;$<$=$w w w x >$x w ?$@$A$B$`!  ",
"      C$D$g E$F$G$H$I$x J$K$r#L$+!+#M$N$x O$P$Q$R$S$T$U$V$`!    ",
"        W$X$Y$Z$[$]$^$_$`$Z#{ ;$q!+#+!a$b$c$d$e$f$g$h$i$j$`!    ",
"          k$l$m$n$o$p$q$r$s$t$t$u$v$w$x$y$z${$|$}$~$ %!%`!      ",
"            `!#%$%%%&%'%(%w w w w )%*%+%,%-%.%0%1%`!`!          ",
"                2%3%4%5%6%w w w 7%8%9%:%;%<%=%1%`!`!            ",
"                  >%?%@%A%B%C%D%E%F%G%H%I%J%1%`!`!              ",
"                    K%L%M%N%O%P%Q%Q%R%S%T%1%`!`!                ",
"                      U%V%W%X%Y%Z%[%]%^%1%`!`!                  ",
"                        >%_%`%a%`%b%c%d%`!`!                    ",
"                          K%e%f%g%h%d%`!`!                      ",
"                            >%i%j%d%`!`!                        ",
"                              >%k%`!`!                          "};


